/* XPM */
static char *wall4[] = {
/* columns rows colors chars-per-pixel */
"64 64 244 2 ",
"   c #161114",
".  c #1B1413",
"X  c #1E1912",
"o  c #1C1B1A",
"O  c #191710",
"+  c #231B13",
"@  c #2A1D13",
"#  c #241C1B",
"$  c #2B1D1A",
"%  c #221711",
"&  c #2B1916",
"*  c #1E201D",
"=  c #242216",
"-  c #2C2216",
";  c #25231C",
":  c #2C241B",
">  c #2D281C",
",  c #332316",
"<  c #32241B",
"1  c #332A1D",
"2  c #3B2C1C",
"3  c #352817",
"4  c #38301E",
"5  c #251D21",
"6  c #3E1A23",
"7  c #2B2521",
"8  c #2D2B24",
"9  c #282426",
"0  c #322623",
"q  c #332C23",
"w  c #3B2D23",
"e  c #342D2B",
"r  c #3C2B28",
"t  c #353224",
"y  c #3B3324",
"u  c #3D3924",
"i  c #36312B",
"p  c #3C352B",
"a  c #3C3A2D",
"s  c #36392B",
"d  c #342C39",
"f  c #3B3633",
"g  c #3E3A33",
"h  c #383236",
"j  c #2E2835",
"k  c #412C1D",
"l  c #43311F",
"z  c #501E2B",
"x  c #433424",
"c  c #433C26",
"v  c #4B3A25",
"b  c #42352A",
"n  c #433B2C",
"m  c #4A3C2B",
"M  c #493624",
"N  c #543D2C",
"B  c #573D2B",
"V  c #453D31",
"C  c #4A3D32",
"Z  c #443836",
"A  c #533D32",
"S  c #5C2330",
"D  c #652634",
"F  c #6D3732",
"G  c #3F4331",
"H  c #43422D",
"J  c #4B422C",
"K  c #484127",
"L  c #52432D",
"P  c #58462D",
"I  c #444334",
"U  c #4B4434",
"Y  c #45423E",
"T  c #4B453A",
"R  c #4C4A3A",
"E  c #4A4836",
"W  c #534433",
"Q  c #5A4534",
"!  c #544B34",
"~  c #5B4D34",
"^  c #53453B",
"/  c #534B3B",
"(  c #5A4D3C",
")  c #5C473B",
"_  c #5C5235",
"`  c #54513E",
"'  c #5C533B",
"]  c #59593E",
"[  c #4E503D",
"{  c #624D35",
"}  c #624D3A",
"|  c #674936",
" . c #625435",
".. c #63553C",
"X. c #6A543C",
"o. c #65593B",
"O. c #6B5A3C",
"+. c #665A36",
"@. c #725C3E",
"#. c #75533D",
"$. c #6E4639",
"%. c #73643F",
"&. c #383244",
"*. c #352F40",
"=. c #4A3D47",
"-. c #4A4443",
";. c #554845",
":. c #5C5442",
">. c #595844",
",. c #534653",
"<. c #635543",
"1. c #645A44",
"2. c #6B5B45",
"3. c #6C5D49",
"4. c #695747",
"5. c #725D43",
"6. c #735C49",
"7. c #765845",
"8. c #704F49",
"9. c #5D614B",
"0. c #6D634C",
"q. c #696246",
"w. c #746244",
"e. c #7B6344",
"r. c #73634C",
"t. c #7A644B",
"y. c #7C6A4B",
"u. c #796945",
"i. c #65665D",
"p. c #69685C",
"a. c #756650",
"s. c #756A52",
"d. c #7C6B53",
"f. c #796550",
"g. c #7E7152",
"h. c #6B6C61",
"j. c #802F3E",
"k. c #895231",
"l. c #833040",
"z. c #8D5C48",
"x. c #846C4C",
"c. c #8B6D4C",
"v. c #856748",
"b. c #946949",
"n. c #8B734C",
"m. c #87744D",
"M. c #9A794E",
"N. c #836D53",
"B. c #876C53",
"V. c #847354",
"C. c #8B7453",
"Z. c #84735A",
"A. c #89765B",
"S. c #8B7959",
"D. c #947C5A",
"F. c #957A55",
"G. c #906F50",
"H. c #A3794C",
"J. c #A57C5A",
"K. c #A57A54",
"L. c #8D7B62",
"P. c #8B7963",
"I. c #927E64",
"U. c #997567",
"Y. c #A47F63",
"T. c #9B835B",
"R. c #988459",
"E. c #8E865D",
"W. c #A3855A",
"Q. c #AB825C",
"!. c #A78759",
"~. c #B38D58",
"^. c #B6935D",
"/. c #AD8C55",
"(. c #9A8363",
"). c #998769",
"_. c #978A6B",
"`. c #A48561",
"'. c #A38A63",
"]. c #A98968",
"[. c #B28C64",
"{. c #AA9368",
"}. c #B3946C",
"|. c #B89867",
" X c #A38D72",
".X c #AC9375",
"XX c #A89677",
"oX c #B49572",
"OX c #BA9B75",
"+X c #B59B78",
"@X c #BDA27C",
"#X c #BEA275",
"$X c #C19E6C",
"%X c #C3A26C",
"&X c #C4A474",
"*X c #C3A47A",
"=X c #CBAC7A",
"-X c #C8A977",
";X c #D6B47E",
":X c #D1AD78",
">X c #FF45A6",
",X c #B49A83",
"<X c #B8A887",
"1X c #B7AB8A",
"2X c #C8AA85",
"3X c #D6B588",
"4X c #C6B995",
"5X c #D7BB94",
"6X c #D1AF83",
"7X c #E3BC8A",
"8X c #E3BE93",
"9X c #DAC196",
"0X c #E4C193",
"qX c #ECC494",
"wX c #EAC69B",
"eX c #F6CE9B",
"rX c #F0C992",
"tX c #EDCCA3",
"yX c #F4CDA3",
"uX c #EDD2AC",
"iX c #FCD5A4",
"pX c #FDDAAB",
"aX c #FBD9A5",
"sX c #EED5B5",
"dX c #F2DDBC",
"fX c #F6DCB3",
"gX c #FFE3AC",
"hX c #FFE3B4",
"jX c #FFEBBB",
"kX c #FFE8B7",
"lX c #FFF4BC",
"zX c #FFFABE",
"xX c #FFF5C4",
"cX c #FFFDC6",
"vX c #FFFECC",
"bX c #FFFFD4",
"nX c #FFFFDC",
"mX c #FFEEC2",
"MX c #CED7FF",
"NX c #D1D9FF",
"BX c #FFFFE3",
"VX c #FFFFEB",
"CX c #FFFFFE",
"ZX c #FFFFF4",
/* pixels */
"7 : 7 7 ; : = X + = ; ; % % % % % : 7 8 : 7 7 8 7 7 7 8 7 7 7 7 7 ; ; @ X X . X X O X = > ; 7 ; 7 9 ; ; ; 7 7 7 7 7 9 9 7 7 7 7 ",
"n U I p U U t u c 4 q y x x v 2 m ^ W V / / V / / / C C / ^ / m ^ T W w M M 1 u u u 3 4 n G b w a n n i V T p V C U n p U C I i ",
"/ W n m 1.( V J P K H c W M v L 1.1.( ;.1.4.:.3.3.:.r.<.0.:.:.:.0.3.( W { ~ L _ ~ v ..^ / y 2 c ^ W n n ' 0.' _ / V / U / C V m ",
"2.( <.<.L.d.4.( +.q.9.] ( 2.r.N.d.3.d.3.Z.g.d.' X.g. XXXf. X XP.6.0.P.X.t.C.t...' g. XP.~ X.5.} / / <.^ <.0.] J J :.<.<./ 1.<.3.",
"V.0.0.>.1.S.4.s.g.1.0.a.2.g.P.).1XXX X). X).2.V.V.y.<X1X).4X4XL._._.,Xd.B.OXB.Z.P.r._.P.3.D.Q.7.d.s.d.1.<.1._ m.w.! s.s.r.d.a.2.",
"d.Z.0._.E.P._.d.P.Z.P.L.L.r. X.X4X1X+X4X4X XS.E.{.V. X.XXX.X1XI._.1X@X,X.X{.<X).).P.d.P.(.v.'.6.).).L.P.s.' g.R.m.u.d.d.XXL.L.3.",
"Z. X0.P.s.s.g.a.(.1X4X.X_.P.d.L.<X1X<X4X9XZ.E.'.{.XXXXL._.XX XXX,X9X<X,X_.U.).P. X1XXX XXX(.t.A.<XXX).I.s.o.s.w.+.V.S.4._.XXZ.f.",
"d.(.a.1.>.1.0.a.).XXXXU.d.d.d.d.d.I.+X+X).s.u.C.).Z.g.Z.V.I.,X+X_.,X,XP.P.N.Z.Z.P.I.Z.P.g.d.f.f.Z.d.N.3.4.1.o.o.o.o.1.3.r.d.a.A.",
"Z.4.4.r.N.,XmXnXVXZXxX8XtXtX8XmXjX6X2X-X*XiXnXBXBXnXeX|.^.^.|.rXfX6X6X3X3XlXZXZXCXZXjX6X-XOX[.3X3X`.`.`.T.*XeX5X3X6XS.4.3.4.>.P.",
"4.I.f.N.*Xf.oXpXjX0X,XbXiXyXnXyXyXcX8X7XkXoX0XxXlX0X|.aX:X%XiX:X;XgX;X0XjX&XwXcXcXwXOXjX6X*XwX}.[.qXoX}.0XB.D.OX}.r./  Xr.6.(.4.",
"I.]..XpXr. XtX)..XxXyX2XCXnXbXnXbXcXcXCX&XwXcX=X-XcXqX|.BXgXaXaXaXaXgXBX}.7XlX&X&XxX8X}.nXeXqXqXqXrXeXbXD.}.3Xr.2.oXd.<.tX X_.(.",
";.:.<.4.A.hXZ.tXpX.XCXtX2X2X2X2X2X2X*XOXqXCX*XcXcX*XZX7X[./././.!.W.W.W.=XnX[.kXkX}.VX:XT.G.c.n.B.G.F.F.oXxXN.*X+X<.wXV.:.:.:.-.",
"4.6.f.d.N.yXL.6X5X*XVX3X5X8X8XwXqX8X7X7X7XVX0XzXlX0XVX;X:X%X%X%X^.~././.^.cX$XeXeX&XcX}.!.F.G.G.F.W.W.`.`.fXD.oX].r.8Xt.6.6.3.4.",
"N.S.I.3X3.6.(.f.B.OXI.{.xXeXiXiXiXiXiXbX&X-XaX=X=XaX&X%XzX7X7X;X:X%X%XeXM.R.:X!.W.:XM.F.qX!.T.F.M.`.[.qXx.y.`.6.2.S.<.<.2XS.Z.d.",
"/ d.( ( f.( ( N.Z.<.2.(.f.C.*XF.D.=XW.T.=XW.!.;X:X/.R.:XR.R.|.n.v./.@.%.R.%.%./.W.@.#.n._ ~ %.P ! e.~ ~ x._ ~ w.5.! ! q.W R r.U ",
"2.W T W W 2.].].[.[.6.( :.( ..A.F.2.5.5.w.R.;X;X;X:XR.@.@.@.@.C.n._ P P P %.^.^.~.~.O.J J J N  . .m c m m _ H.H.M.H.' n J J J <.",
": ; ; ; ; ; ; ; ; ; ; ; ; ; > > > > > > > > > > : > : > > ; : ; ; ; = ; = = = = = = = # @ = + = + = + + X = X = X + # = X * = = ",
"@ $ - $ 8 8 9 i p f 8 7 > - = = * * ; * 8 8 7 8 q 8 7 7 t 8 q 7 t q t ; 7 7 7 i i p 8 q i i t ; > = = > q e 7 8 8 8 $ o * o * * ",
"1 1 , 8 a a t I ^ n U t 4 > - = t 8 ; * p a q g V q p q p q q q s i q 7 8 8 q V C p C p I i r q 4 y > t p w q g p : w : 8 * * ; ",
"M M U p E R / U N :.:.( u K K K G s G t U W U n ( ( U E n U U T U b U s a G U I U / ( ( / <.:./ c n / J Q P m n n m b m t g s g ",
"X.q.2.U T 1.~ v.e.~ N.d.E _ ! J q.>.` C W / n q.g.r.1.<.' 3.0.} V.2.' J K _ W 1.4./ 3.d.d.L.A.' 2.q.r.#.#.x.! >.0.W { { L 2.` U ",
"3.Z.r.V.a.~ t.F.B.@.v.c.V.+.%.L 1.1.` d.3.E 0.0.S.t...6.).Z.(.2.Z.r./ o.o._ 0.a.s.q.s.4.A.d.XXd.s.d.4.F.D.w.0.s._.a.~ ~ t.e.r.r.",
"q.S.Z. XZ.} 5.X.X.5.N.r.L.{.u.( 1.q.0.E.s.<.E.>.X.5.X.5..X XZ.2.a.0._ O.y.y.Z.q.g._. Xs.d.g.d.3.d.N.r.C.N.4.0.:.s._.Z...5.v.2.S.",
"( <.t.A.2.{ { } <.X.2.4.3.g.3.' / :.4.2.<.<.3...P P Q ..y.d.3...<.<..._  .y.q.p.g.P.g.q.<.3.2.3.3.a.L.A.1.:.:.:.>.0.:.:.{ {  .r.",
"CXCXCXCXCXCXVXVXjXxXvXvXcXhXmXvXcXjXpXfXpXjXjXlXxXpXpXpXpXpXhXjXjXkXhXhXpXhXjXmXhXjXkXxXnXjXhXjXjXhXiXwXwXyXyXvXbXCXCXCXCXCXVXr.",
"vXCXnXnXnXBXCXvXpXbXBXvXvXkXnXVXbXVXVXjXcXbXVXBXxXvXkX0XaXkXnXBXcXVXnXhXxXcXnXbXhXVXVXxXbXcXnXnXjXbXnXgXtXpXBXnXCXBXVXZXZXCXnX.X",
"3XvXwXD.'.}./.zX/.C.#XlXzXgXR.W.=X6X5XkXlXjXOXT.#X#X{.wXhXgX}.+X6X+X{.iXhXpX].F.{.'.+XwX0X0XE.C.(.S.).5X2X5XS.lXV.Z.(.XXjXVX8X<.",
"w.n.u.c J E o._ _ _ 2.y.n.@.@.%.u.v.n.O.O.X.e.e.e.n.x.w.2.o.m.c.m.B.c.o.X.<.x.x.x.x.x.<.' ( t.6.w.O.o.W J J _ ! ! u c J u.y.q.p ",
" .+. .4 c c _ _ K o.%.! _ _ n.R.O.n.n.o. . .m.n.o.C.C.o.2.2.D.R.5.T.R.2.2.2.D.D.2.R.D.2.1.2.E.F.o.m.y.W L J ] _ ] K G 4 ' _ _ 4 ",
" ./. .4 _ c K  .J o.K ! m.+.+.R.O.R.o._ y.' _ y._ x.' ' m.X.2.R.5.F.2.2.C.] ` m.' Z.....C.2. .F.<.m._ E ] K K ! 4 4 ! 4 _ !._ 4 ",
" ./. .4 c K K %.! %.P  .+.%./.n.v.%.!.o. .' _ m._ m.' o.2.2.'.y.x.y.(.q.2...' V.' V.' 2.2.2.R.e.q.O.m.! J H u ! G 4 4 4 _ W._ 1 ",
"/.+.+.3  .K K %._ m.+.O.!.v.|.%XR.^./.%.S.o.' m.] C.<.2.T.x.#X&XT.#X}.w.T.1.2.D.2.E.2.2.T.u.{.{.c.{.T...u.H K _ u u ! 1 _ _ M.t ",
"/.O.+.4 +.K P _ m. .+.%.v.~.0X0X7X7X/.e.1.o.o.C.C.X.2.w.m.|.iXaXpXaX#XV.r.r.2.T.(.0.w.r.x.{.9X0X0X0X{.%.o.! H _ [ u u 4 _ _ M.4 ",
" .+.+.4 K %.P _  .n.] +.M.+. .n.b.X.X.F.O...m.' _ V...2.T.( r.'. Xy.:.W.5.2.R.0.q.'.u.y.'.0.>.E.E.w.w.W.+.] q.J K [ s 4 _ ] _ 4 ",
"+./.+.t +.%.%.v.%.%.%.q.u L w.c c @.W c x.c.x.t.y.r.w.t.J R r.g n a.' I N.y.S.E.E.'.(.E.E >.s.G G p.` J g.u.q.q.] [ ! > ~ K.! t ",
"+.~.o.y K J U L u c t u H ] u E U u ..J u c c a p u i t a :.i I I i :.V s a g I I E E I [ 9.G E I s 9.I s s s t t 8 > 1 ! M.~ q ",
"+.~.+.4 K J J H J H H H G ] G H H H ] H H J I H H a a a a R a g a a ` a n g I I T E E R R 9.E I G G 9.I E G I a a u y > L H.~ q ",
"@.~.O.l _  .O.O.+.' _ ] H H ] K I ] H H ] >.] >.:.>.` [ s a R s s ;.G g / >.>.>.>.:.>.>.I Y 9.E G 9.I E q.>.` W J b c = J b.~ q ",
"@.@.+.4 l { L L K _ 4 K _ H K _ ] G E o.E E q.E E 1.G I >.G g >.>.I Y >.G g R g a ` a I >.E E >.9.E E r.T n ! q 1 y < - m W W q ",
"~.@.O.4 P v v P  .c 2 4 3  ./././.~.w.a ! ! ! w.0.E E I Y 3.{.oXoX+X0.R T I I >.` a a V i q.{.}.+X|.r.a J p w M y : < - m W b.q ",
"~.O. .2 N M | L v l v 3 P 3 l %.! w.c W w.! q.! U E 2.E 1.R R d.:.d.-./ a.T 4.V V n / V <.p a r.W 6.c c ! w c : w , y $ v m b.q ",
"X.!...3 v k P v l k v 3 P v L +.L %.! W q.U 2.U U U 1.U <.E Y 3.R 0.R / 3.E <.V a a / n ( V U <.U :.n b L q x < w : b = m z.W 1 ",
"X.Q.~ - 3 3 k B 3 v 3 3 l l +.v J L o.m m m b _ n / n c g a ' V I I 1.Y U V n T t U q y y u ^ u p y L q 1 < - 4 < 3 3 - b b.W q ",
"O.X.P @ k , , l , k 3 3 v l P  .v _ ~ c W t y J t m q t V t I U p / R a T i t n 0 p 1 : b q m m q b b < y $ @ , % $ 1 # m L W 1 ",
"2.X.{ 3 , , k k.@ k k 3 3 2 L B l K K 2 1 1 y y : y y ; : 7 t s 8 p g 8 > > s w : 1 q = : : y w : y 2 $ + + , F - + @ @ N L W 0 ",
"O.K.X. .P B k.k @ @ @ k l k , , - , , 3 3 < + + + % + : : : @ + = # + 1 1 0 = @ + @ @ 3 < - + + @ % + 3 , 3 + , F , 2 x W b.W q ",
"Q.Q.K.H.H.H.P v @ , , @ @ @ , , + , @ % % % - - % - - % + X $ $ X $ : + + + : : X : : + + % - - % : : % $ - y b l k.z.b.b.b.b.1 ",
"M x 4 2 k k 3 , , @ @ @ @ @ @ % @ + @ + + % % % O % X O % % % . X X % + + # + + + # + % % % % % + - - < 2 4 y > > 1 : 1 < 1 1 1 ",
"J.K.K.F.J.J.J.J.J.Q.Y.Y.Q.`.`.].].].[.[.].}.oXoXoXoXOXOX*XOX*X2X@X-X-X=X=X2X=X=X=X=X=X=X-X-X-X&X%X%X$X|.|.|.[.[.^.Q.~.`.J.J.J.J.",
"*XK.J.J.*XJ.J.J.*XJ.J.J.2XY.Y.Y.2X].].].2X]..XoX2XoXoXoX4X+XOXOX9X@X@X*X9X-X-X*X9X-X-X-X9X&X&X%X9X%X$X|.3X|.|.[.6X[.`.Q.=XJ.K.K.",
"uXtXtX*XtXuXtX*XuXuXuX2XuXtXuX2XuXsXsX2XsXsXsX2XsXdXsX4XsXdXdX5XdXdXdX5XdXmXdX5XdXdXdX5XhXdXdX5XdXfXdX3XuXsXuX6XuXuXuX=XuXtXuX*X",
"#.$.8.N #.#.8.B 7.#.#.N 7.8.7.B 8.7.7.A 7.6.6.) z.6.6.$.f.z.N.} N.N.c.} N.d.G.} C.C.G.X.n.n.G.| c.c.c.| b.v.v.Q z.@.k.Q #.7.#.B ",
"B ;.8.Z A B B k A N 8.F z.D m r N A A r ) ;.;.Z =.A A Z ) ) ) b ) } ) m } } } A X.3.4.N } } | m | | $.F z.F | l | B B M <.8.8.b ",
"5 *.&.*.5 . . .   6 z D S z %   . .   . 9 d &.j 5 % . . . . . % X X . % % o % # 0 d d j 5 % + % % @ z S z z & . . . % # j &.&.5 ",
"j MXMX&.5 .   .   z D >X>Xz & .       5 d MXNX&.5 % . % . . . . o % o . % % . # d NXNX*.5 % . % . & S >X>XS & % . . % 5 &.NXMXd ",
"r =.=.Z r & & & % 6 D j.j.D 6 $ $ $ & $ =.=.=.=.j $ 5 $ $ 0 $ 0 $ $ < 0 0 < < r Z ,.,.Z w < < < < k S F F D z & - , & < Z =.=.r ",
"].B.;.A <.F F.N Y.8.B F 8.8.U.A U.8.b b 8.p.,X=.U.8.A A 4.8..X} +XB.) ) N.C.<XX.2XP.8.;.7.7.Y.^ ].7.F $.z.z.J.N J.7.N N 7.N..X$.",
"N 2 & .     < b v 3 .   . % 0 m b <   . . % 6 k 0 5 o .   . r W Q x X # # $ x Q W w .   . . $ r b 0 o . . . $ x M , . . % % w A ",
"G.4.< .   & W G.G.| <   . < | G.B.) : . . 0 A =.=.Z 7 .   0 X.(.`.5.w # # x 5.W.D.} 0     $ b 8.8.W $   . & A 7.z.Q - X . r X.S.",
"} b x     0 w } X.m b     b m <.( b r . . h 0 h h 0 e     r Z 4.4.A C % % m C <.) b e     5 0 Z Z r e     6 w Q ^ b r . . b m <.",
"< 0   b b   5 < 0 0 . C A % < r 0 7 . Y Y   9 5 5 5 . Z g   0 q q 0 o / ;.o 0 7 9 7   g h   o 5 $ $   Z Z   $ 5 0 : . T ^ o 0 0 ",
"r 7 ^ h p -.0 Z b 0 ^ f h =.0 n Z q ;.f f -.9 d h 5 -.h h -.9 g h 8 ;.Z f ;.0 f h 9 -.h h -.9 h h 9 -.h f -.8 f f 8 ;.Z f ;.8 Z ",
"Z Z e -.-.i T Y Y Y i C Z e Z -.-.Y i -.-.e Y Y g Y j Y Y i -.-.-.-.h Y -.i -.=.G =.e -.-.e &.Y G -.e g Y e Y Y Y -.i Y Y i Y Y ",
"i.p.p.f g h.h.h.p.p.i.f g i.i.i.p.i.i.f f i.i.i.i.i.i.f h i.i.p.i.i.i.s h i.i.i.i.i.i.s h i.i.i.i.i.i.h f i.p.i.i.p.i.g f i.i.p."
};
